PathFileType	4	(X/Y/Z)	D:\TRACE\spotREDO_2-26-24\spot_justBody_Motion_2_3-platform.trc
DataRate	CameraRate	NumFrames	NumMarkers	Units	OrigDataRate	OrigDataStartFrame	OrigNumFrames
100.00	100.00	      60	5	mm	100.00	1751	      7000
Frame#	Time	Left_Front			Right_Front			Left_Aft			Right_Aft			Post			
		X1	Y1	Z1	X2	Y2	Z2	X3	Y3	Z3	X4	Y4	Z4	X5	Y5	Z5	

1751	17.500	-668.47626	-3.20257	-575.35101	746.14789	5.76577	-490.76999	-739.78503	4.00135	643.56274	830.62042	11.86760	646.84424	40.76387	624.59418	-981.33020	
1752	17.510	-667.60986	-1.80963	-575.05798	747.40997	6.91207	-490.34006	-738.87067	2.86310	643.93951	831.44623	10.32691	647.21277	41.71531	626.87274	-979.60077	
1753	17.520	-666.38757	-0.59628	-574.82397	748.08051	8.13165	-490.25403	-737.55597	1.19620	644.40692	832.41376	8.88458	647.56085	42.61798	629.13519	-978.08795	
1754	17.530	-665.43958	1.09263	-574.31079	749.26459	9.54604	-489.91006	-736.97296	0.03273	644.51886	833.65375	7.07702	647.57806	43.71135	631.35431	-976.03497	
1755	17.540	-664.36743	2.34324	-573.94891	750.06171	10.52938	-489.42758	-735.70819	-1.58811	645.10181	834.24109	5.83565	648.21155	44.91223	633.75562	-974.39020	
1756	17.550	-663.49878	4.09695	-573.53229	751.17212	12.05531	-489.05814	-734.52472	-3.16055	645.56696	835.37170	4.56462	648.62891	45.40419	636.51636	-972.53821	
1757	17.560	-662.51416	5.27413	-573.17834	752.25183	13.12991	-488.51990	-733.79297	-4.34379	645.86230	836.25006	3.29894	649.10785	46.57451	638.75934	-970.46661	
1758	17.570	-661.70990	6.70284	-572.85852	752.72656	14.41209	-488.42874	-732.90887	-5.86860	646.18787	837.18622	1.50731	649.37354	47.33088	641.03601	-968.52673	
1759	17.580	-660.71625	7.92744	-572.42682	754.04169	15.41687	-487.85614	-731.94556	-7.48584	646.54321	838.10742	0.16491	649.73962	48.01336	643.21521	-966.58679	
1760	17.590	-660.00787	9.56103	-572.19232	754.87750	16.68015	-487.37759	-730.95148	-9.04708	646.91516	838.92523	-1.23662	650.01581	49.23300	645.50568	-964.34302	
1761	17.600	-659.23895	10.78593	-571.70575	755.69733	17.97084	-487.04419	-730.03198	-10.13491	647.12726	839.51379	-2.76168	650.38220	49.97108	648.00549	-962.40082	
1762	17.610	-658.38879	12.24933	-571.31543	756.73120	18.95770	-486.70908	-729.40271	-11.65934	647.48163	841.01062	-4.20074	650.34332	50.72723	650.23206	-960.47229	
1763	17.620	-657.51294	13.49053	-570.94702	757.49384	20.39477	-486.17355	-728.40741	-13.18250	647.82825	841.85529	-5.91060	651.07141	51.72321	652.37177	-958.50940	
1764	17.630	-656.37299	14.70580	-570.42725	758.03003	21.40638	-486.09219	-727.68823	-14.53213	648.18744	842.59271	-7.26670	651.09473	52.28342	654.61902	-956.92346	
1765	17.640	-655.65283	16.09443	-570.15924	758.89465	22.52864	-485.60974	-726.72809	-15.93604	648.52325	843.57813	-8.73073	651.48328	53.39307	656.67291	-955.16840	
1766	17.650	-654.95599	17.34558	-569.80383	759.76202	23.48750	-485.15295	-726.00568	-17.34957	648.77521	844.06097	-9.82735	651.49921	53.69390	658.91522	-953.77295	
1767	17.660	-654.39911	18.92510	-569.36066	760.38031	25.12416	-484.84561	-725.37299	-18.46666	649.13269	844.59204	-11.42130	652.06073	54.85658	661.12695	-952.21045	
1768	17.670	-653.57422	19.99718	-568.89954	761.28564	25.89254	-484.49780	-724.47333	-19.98992	649.45642	845.58746	-12.36161	652.25543	55.49411	663.20850	-950.37897	
1769	17.680	-652.95734	21.53678	-568.46033	761.74756	27.22353	-484.13126	-723.65784	-21.40618	649.83038	846.50720	-14.14857	652.86182	56.60020	665.40881	-948.62823	
1770	17.690	-652.32318	22.34745	-568.23358	762.46173	27.95728	-483.79651	-723.13818	-22.81141	650.00262	847.23053	-15.37767	652.86517	56.74176	667.33179	-947.04584	
1771	17.700	-651.64264	23.96102	-567.79419	763.24811	29.28621	-483.51868	-722.48749	-24.12498	650.25433	847.60541	-16.62721	653.13385	57.54753	669.44678	-945.24182	
1772	17.710	-650.79309	25.16873	-567.39178	763.87238	30.25938	-483.03085	-721.85327	-25.29576	650.45679	848.10101	-17.84410	653.37421	58.03869	671.53851	-943.34137	
1773	17.720	-650.39948	26.35736	-566.95996	764.29468	31.56247	-482.70731	-721.16907	-26.52626	650.94147	849.06116	-19.36421	653.95496	58.41978	673.56903	-941.33673	
1774	17.730	-649.71252	27.45065	-566.63428	764.72321	32.49325	-482.40137	-720.62982	-27.92888	651.01740	849.78613	-20.15401	654.06165	59.26843	675.58136	-939.32697	
1775	17.740	-649.18103	28.59556	-566.19189	765.30402	33.49867	-481.79755	-720.09485	-28.99603	651.25244	849.80573	-21.78567	654.48926	59.63739	677.44336	-937.46930	
1776	17.750	-648.98938	29.73672	-566.07520	765.91003	34.51954	-481.71878	-719.78693	-30.58243	651.48785	850.50653	-22.89485	654.30200	60.55553	679.15070	-935.53680	
1777	17.760	-648.36224	31.07981	-565.66174	766.19086	35.24128	-481.25479	-719.23456	-31.41889	651.78961	851.01581	-24.19996	654.95514	60.38495	681.02423	-934.21295	
1778	17.770	-647.99274	32.10648	-565.20245	766.74799	36.35481	-480.75824	-718.66772	-32.78708	652.17383	851.23907	-25.30430	655.00262	60.79459	682.80066	-932.55933	
1779	17.780	-647.57288	33.18315	-564.93628	766.87531	37.41617	-480.48956	-718.52826	-33.74411	652.28119	851.79083	-26.58636	655.17407	61.30249	684.67444	-931.35931	
1780	17.790	-647.21503	34.13010	-564.53168	767.17218	38.08574	-480.14044	-718.15277	-35.02678	652.64087	852.05743	-27.52535	655.46252	61.66278	686.41632	-930.02130	
1781	17.800	-647.32880	35.27015	-564.22809	767.53308	39.01768	-479.89331	-717.81458	-36.12463	652.77655	852.27734	-28.91785	655.49481	62.13986	688.00775	-928.51794	
1782	17.810	-646.92010	36.12893	-563.85120	767.74884	39.77671	-479.41632	-717.78320	-37.34927	652.93427	852.36029	-29.82463	656.01208	61.95762	689.56195	-927.62897	
1783	17.820	-646.87866	37.16051	-563.60236	768.04901	40.76616	-479.24011	-717.41064	-38.22152	653.18951	852.82672	-30.31384	656.25916	62.28117	691.23053	-926.26477	
1784	17.830	-646.69586	38.31316	-563.14191	768.08905	41.71016	-478.92194	-717.23975	-39.27841	653.36487	852.78577	-31.77218	656.43982	62.41071	692.73773	-924.62378	
1785	17.840	-646.49585	38.95837	-562.88000	768.13776	42.47816	-478.70551	-717.34052	-40.03304	653.61774	852.51630	-32.94077	656.28925	62.16900	694.40747	-923.51453	
1786	17.850	-646.64240	39.86259	-562.59271	768.02423	42.96405	-478.37949	-717.21759	-41.02775	653.72693	852.84723	-33.51371	656.55139	62.60141	695.59290	-921.91650	
1787	17.860	-646.51575	40.79308	-562.32062	768.06519	43.72847	-478.12479	-717.13898	-42.13837	653.99194	853.08350	-34.76104	656.82373	62.24998	697.05420	-920.52795	
1788	17.870	-646.43762	41.45719	-562.06805	768.08484	44.76068	-477.95703	-717.42267	-42.98311	653.98169	852.78131	-35.41754	656.98547	62.04033	698.28723	-919.17316	
1789	17.880	-646.49609	42.16615	-561.85455	768.18658	45.20142	-477.54321	-717.16937	-43.65331	654.24652	852.91370	-36.24547	657.19550	62.38917	699.64740	-917.64355	
1790	17.890	-646.59912	43.29068	-561.64319	768.05341	45.99327	-477.29977	-717.19263	-44.68210	654.50653	852.80267	-37.25103	657.39215	62.17916	700.80566	-916.73822	
1791	17.900	-646.53528	43.88136	-561.28668	767.91370	46.66515	-477.01334	-717.24774	-45.29057	654.55560	852.71124	-38.02213	657.38586	62.09722	702.21271	-915.50372	
1792	17.910	-646.81000	44.46648	-561.06287	767.81165	47.08659	-476.67358	-717.47107	-46.18853	654.60437	852.61145	-38.73347	657.50140	61.85423	703.25641	-914.61487	
1793	17.920	-647.11938	45.26014	-560.66925	767.43823	47.74350	-476.43576	-717.67578	-47.12338	654.80774	852.49628	-39.80696	657.68225	61.73573	704.47375	-913.75452	
1794	17.930	-647.41687	45.92703	-560.48468	767.13739	48.25871	-476.12619	-717.93835	-47.75786	654.89795	852.15308	-40.57380	657.56049	61.43514	705.38550	-912.70123	
1795	17.940	-647.67358	46.45288	-560.20081	766.74548	48.96509	-476.00424	-718.55017	-48.29516	654.95898	851.71460	-40.99224	657.88300	61.34439	706.45740	-911.96704	
1796	17.950	-648.29675	47.48465	-560.16272	766.40680	49.53123	-475.98679	-718.74298	-48.97026	655.10699	850.89117	-41.75864	657.95221	60.31194	707.47870	-911.33972	
1797	17.960	-648.69537	48.06248	-559.88300	766.36115	49.80101	-475.61914	-719.05133	-49.64144	655.33136	850.90051	-42.39864	658.08441	60.21195	708.44440	-910.26782	
1798	17.970	-648.80975	48.27813	-559.75201	765.89410	50.27887	-475.60193	-719.56006	-50.23059	655.52411	850.48529	-42.96346	658.10541	60.19267	709.17175	-909.41827	
1799	17.980	-649.01654	48.52999	-559.64136	765.42578	50.65933	-475.37289	-719.77991	-50.57984	655.42633	850.46259	-43.42811	658.24811	59.53749	709.96619	-908.50208	
1800	17.990	-649.73199	49.12465	-559.38342	764.93390	50.98412	-475.10645	-720.31622	-50.90847	655.61499	850.17474	-43.84620	658.19818	59.31737	710.57043	-907.60712	
1801	18.000	-650.37860	49.78680	-559.07465	764.48132	51.47647	-475.00394	-720.72266	-51.69651	655.74835	849.49280	-44.37424	658.27759	58.82700	711.41974	-907.00183	
1802	18.010	-650.62640	50.15355	-558.99036	764.26990	51.84299	-474.87064	-721.01691	-52.09623	655.79785	848.98035	-44.94219	658.54694	58.45919	711.99579	-906.47632	
1803	18.020	-651.02222	50.35684	-558.89801	763.81683	52.09218	-474.67578	-721.55847	-52.68665	655.87665	848.47180	-45.14036	658.63794	57.95821	712.59448	-905.87622	
1804	18.030	-651.53955	50.68077	-558.79236	763.30695	52.27885	-474.55167	-721.97015	-53.15890	655.91919	848.00946	-45.61875	658.83734	57.19028	713.22473	-905.44305	
1805	18.040	-651.95422	51.09616	-558.73511	762.74292	52.72156	-474.45074	-722.34137	-53.43062	655.88654	847.74432	-45.97001	658.59381	56.68126	713.86041	-904.99323	
1806	18.050	-652.54327	51.62818	-558.61401	762.26917	53.09212	-474.41650	-723.07202	-53.75384	655.90479	847.10638	-46.48632	658.52472	56.43426	714.32074	-904.63257	
1807	18.060	-653.10901	51.86689	-558.51965	761.82977	53.35022	-474.25882	-723.58014	-53.97327	655.89246	846.55780	-46.70709	658.71967	55.99797	714.81439	-904.31201	
1808	18.070	-653.65326	52.06288	-558.40637	761.28705	53.61877	-474.33054	-723.96667	-54.19086	655.83606	846.05103	-46.73272	658.80182	55.49203	715.11450	-904.01361	
1809	18.080	-654.07227	52.23767	-558.35645	760.62939	53.56028	-474.14825	-724.57013	-54.49207	656.00018	845.50977	-47.09049	658.99921	54.74324	715.39783	-903.61810	
1810	18.090	-654.57941	52.20881	-558.25012	759.85272	53.60294	-474.02853	-725.24023	-54.65952	656.14294	845.07947	-47.48650	658.91394	54.05148	715.73859	-903.33331	
